<?xml version="1.0" standalone="no"?>
<!DOCTYPE svg PUBLIC "-//W3C//DTD SVG 20010904//EN"
 "http://www.w3.org/TR/2001/REC-SVG-20010904/DTD/svg10.dtd">
<svg version="1.0" xmlns="http://www.w3.org/2000/svg"
 width="500.000000pt" height="500.000000pt" viewBox="0 0 500.000000 500.000000"
 preserveAspectRatio="xMidYMid meet">
<metadata>
Created by potrace 1.16, written by Peter Selinger 2001-2019
</metadata>
<g transform="translate(0.000000,500.000000) scale(0.100000,-0.100000)"
fill="#000000" stroke="none">
<path d="M2391 3409 l-131 -171 0 55 c0 31 4 58 10 62 14 9 0 35 -20 35 -20 0
-34 -26 -20 -35 6 -4 10 -29 10 -58 l0 -51 -55 54 c-49 48 -55 59 -55 95 0 33
-6 47 -30 70 -16 16 -30 37 -30 48 0 13 -6 18 -22 15 -29 -4 -31 -41 -3 -46
40 -8 65 -42 65 -90 0 -41 5 -49 65 -111 l65 -68 -21 -27 -22 -28 -51 51 c-28
28 -56 51 -61 51 -5 0 -30 20 -55 44 -41 39 -51 44 -108 50 -51 5 -64 3 -69
-10 -9 -25 14 -41 37 -26 38 23 83 15 120 -23 l34 -35 -67 0 c-37 0 -76 6 -87
12 -23 15 -46 -1 -37 -26 6 -16 47 -23 47 -8 0 4 42 6 92 4 l93 -3 48 -47 c26
-25 47 -49 47 -53 0 -11 -102 -139 -111 -139 -5 0 -9 36 -9 80 l0 80 -55 0
c-30 0 -55 5 -55 10 0 6 -6 10 -13 10 -19 0 -36 -20 -30 -36 4 -10 20 -12 69
-7 l64 6 0 -76 c0 -42 5 -79 10 -82 7 -4 5 -14 -5 -28 -23 -33 -19 -37 42 -37
l57 0 -49 -50 c-51 -52 -78 -61 -115 -38 -24 15 -46 -2 -36 -27 4 -12 13 -15
29 -11 12 3 34 6 49 6 18 0 39 12 62 38 l36 37 0 -89 0 -89 -81 5 c-63 4 -82
2 -86 -9 -9 -24 14 -40 37 -25 11 6 33 12 50 12 29 0 30 -2 30 -43 0 -36 -6
-48 -32 -74 -18 -16 -41 -33 -51 -37 -23 -7 -18 -39 6 -44 10 -2 20 5 26 20 5
13 23 36 40 52 26 25 31 37 31 78 0 45 2 48 25 48 l25 0 0 108 c0 71 4 112 12
120 7 7 29 12 50 12 l38 0 0 -124 0 -124 -66 -61 c-64 -58 -73 -81 -33 -81 12
0 19 7 19 18 0 10 23 40 50 67 l50 49 0 128 0 128 55 0 c30 0 55 -4 55 -9 0
-5 -32 -113 -71 -241 -38 -128 -68 -234 -65 -237 3 -3 30 35 62 83 31 49 69
109 85 134 16 25 29 38 29 30 0 -9 20 -35 45 -60 24 -24 45 -53 47 -64 4 -30
48 -35 48 -6 0 11 -8 23 -17 27 -31 10 -113 96 -113 117 0 11 21 55 48 98 l47
78 3 -95 c3 -94 3 -95 27 -95 23 0 25 -4 25 -43 0 -36 6 -49 34 -76 19 -18 37
-44 40 -57 7 -26 25 -31 43 -13 15 15 5 39 -16 39 -9 0 -31 15 -49 33 -26 26
-32 41 -32 75 0 41 1 42 35 42 19 0 44 -6 55 -12 17 -11 22 -10 30 2 19 29 4
35 -83 31 l-87 -3 0 88 0 88 38 -36 c29 -28 48 -37 88 -42 52 -6 67 2 57 32
-5 14 -43 16 -43 2 0 -5 -15 -10 -34 -10 -27 0 -41 8 -70 40 -20 22 -36 42
-36 45 0 17 48 75 63 75 12 0 17 8 17 26 0 14 5 34 10 44 7 13 7 21 0 25 -5 3
-10 20 -10 37 l0 31 66 -6 c52 -4 67 -2 71 10 9 24 -14 40 -37 25 -11 -6 -42
-12 -70 -12 l-50 0 0 -40 0 -40 -60 0 -60 0 0 33 c0 26 10 43 49 81 l49 49
116 -5 c108 -4 116 -3 116 14 0 21 -32 38 -38 20 -2 -8 -30 -12 -80 -12 l-76
0 34 35 c28 29 41 35 75 35 23 0 46 -5 52 -11 15 -15 33 -3 33 21 0 18 -5 19
-62 14 -57 -6 -67 -11 -108 -50 -25 -24 -50 -44 -56 -44 -5 0 -35 -26 -67 -58
-46 -46 -57 -64 -57 -90 0 -23 -5 -32 -16 -32 -14 0 -16 11 -12 75 l3 75 58
58 c50 51 57 62 57 98 0 31 6 46 28 67 15 15 33 27 39 27 17 0 33 25 24 39
-12 19 -46 9 -49 -15 -2 -12 -16 -34 -33 -49 -23 -23 -29 -37 -29 -70 0 -35
-6 -47 -40 -80 l-40 -39 10 35 c6 19 24 84 41 144 18 61 34 116 36 123 17 42
-30 -9 -146 -159z m53 -109 c-35 -124 -64 -228 -64 -232 0 -5 52 -8 115 -8 63
0 115 -3 115 -6 0 -8 -340 -554 -344 -554 -2 0 25 93 60 208 35 114 64 213 64
219 0 9 -43 13 -169 15 l-168 3 225 293 c124 160 226 291 228 289 1 -1 -26
-103 -62 -227z"/>
</g>
</svg>
